<svg height="240" width="810"><line stroke="gray" stroke-width="20" x1="135.0" x2="135.0" y1="0" y2="240"/><rect fill="lightblue" height="30" rx="15.0" ry="15.0" stroke="gray" stroke-width="1" width="240" x="15.0" y="210"/><rect fill="lightblue" height="30" rx="15.0" ry="15.0" stroke="gray" stroke-width="1" width="210" x="30.0" y="180"/><rect fill="lightblue" height="30" rx="15.0" ry="15.0" stroke="gray" stroke-width="1" width="180" x="45.0" y="150"/><rect fill="lightblue" height="30" rx="15.0" ry="15.0" stroke="gray" stroke-width="1" width="150" x="60.0" y="120"/><rect fill="lightblue" height="30" rx="15.0" ry="15.0" stroke="gray" stroke-width="1" width="120" x="75.0" y="90"/><rect fill="lightblue" height="30" rx="15.0" ry="15.0" stroke="gray" stroke-width="1" width="90" x="90.0" y="60"/><line stroke="gray" stroke-width="20" x1="405.0" x2="405.0" y1="0" y2="240"/><rect fill="lightblue" height="30" rx="15.0" ry="15.0" stroke="gray" stroke-width="1" width="60" x="375.0" y="210"/><line stroke="gray" stroke-width="20" x1="675.0" x2="675.0" y1="0" y2="240"/><rect fill="lightblue" height="30" rx="15.0" ry="15.0" stroke="gray" stroke-width="1" width="270" x="540.0" y="210"/></svg>