<svg height="400" viewBox="0 0 400 400" width="400" xmlns="http://www.w3.org/2000/svg"><line stroke="black" stroke-width="1" x1="200" x2="240.0" y1="200" y2="200.0"/><line stroke="black" stroke-width="1" x1="240.0" x2="252.3606797749979" y1="200.0" y2="161.95773934819385"/><line stroke="black" stroke-width="1" x1="252.3606797749979" x2="220.0" y1="161.95773934819385" y2="138.44632925649492"/><line stroke="black" stroke-width="1" x1="220.0" x2="187.6393202250021" y1="138.44632925649492" y2="161.95773934819385"/><line stroke="black" stroke-width="1" x1="187.6393202250021" x2="200.0" y1="161.95773934819385" y2="200.0"/><line stroke="black" stroke-width="1" x1="240.0" x2="252.3606797749979" y1="200.0" y2="238.04226065180615"/><line stroke="black" stroke-width="1" x1="252.3606797749979" x2="292.3606797749979" y1="238.04226065180615" y2="238.04226065180615"/><line stroke="black" stroke-width="1" x1="292.3606797749979" x2="304.7213595499958" y1="238.04226065180615" y2="200.0"/><line stroke="black" stroke-width="1" x1="304.7213595499958" x2="272.3606797749979" y1="200.0" y2="176.48858990830107"/><line stroke="black" stroke-width="1" x1="272.3606797749979" x2="240.0" y1="176.48858990830107" y2="199.99999999999997"/><line stroke="black" stroke-width="1" x1="252.3606797749979" x2="220.0" y1="238.04226065180612" y2="261.55367074350505"/><line stroke="black" stroke-width="1" x1="220.0" x2="232.3606797749979" y1="261.55367074350505" y2="299.5959313953112"/><line stroke="black" stroke-width="1" x1="232.3606797749979" x2="272.3606797749979" y1="299.5959313953112" y2="299.5959313953112"/><line stroke="black" stroke-width="1" x1="272.3606797749979" x2="284.7213595499958" y1="299.5959313953112" y2="261.55367074350505"/><line stroke="black" stroke-width="1" x1="284.7213595499958" x2="252.3606797749979" y1="261.55367074350505" y2="238.04226065180612"/><line stroke="black" stroke-width="1" x1="219.99999999999997" x2="187.63932022500208" y1="261.553670743505" y2="238.04226065180606"/><line stroke="black" stroke-width="1" x1="187.63932022500208" x2="155.27864045000416" y1="238.04226065180606" y2="261.55367074350494"/><line stroke="black" stroke-width="1" x1="155.27864045000416" x2="167.63932022500202" y1="261.55367074350494" y2="299.5959313953111"/><line stroke="black" stroke-width="1" x1="167.63932022500202" x2="207.63932022500202" y1="299.5959313953111" y2="299.59593139531114"/><line stroke="black" stroke-width="1" x1="207.63932022500202" x2="219.99999999999994" y1="299.59593139531114" y2="261.553670743505"/><line stroke="black" stroke-width="1" x1="187.63932022500205" x2="199.99999999999997" y1="238.04226065180603" y2="199.9999999999999"/><line stroke="black" stroke-width="1" x1="199.99999999999997" x2="167.6393202250021" y1="199.9999999999999" y2="176.48858990830092"/><line stroke="black" stroke-width="1" x1="167.6393202250021" x2="135.2786404500042" y1="176.48858990830092" y2="199.99999999999983"/><line stroke="black" stroke-width="1" x1="135.2786404500042" x2="147.63932022500205" y1="199.99999999999983" y2="238.04226065180598"/><line stroke="black" stroke-width="1" x1="147.63932022500205" x2="187.63932022500205" y1="238.04226065180598" y2="238.042260651806"/></svg>