<svg height="400" viewBox="0 0 400 400" width="400" xmlns="http://www.w3.org/2000/svg"><line stroke="black" stroke-width="1" x1="200" x2="210.0" y1="200" y2="200.0"/><line stroke="black" stroke-width="1" x1="210.0" x2="216.23489801858733" y1="200.0" y2="192.1816851753197"/><line stroke="black" stroke-width="1" x1="216.23489801858733" x2="214.00968867902418" y1="192.1816851753197" y2="182.43240605350147"/><line stroke="black" stroke-width="1" x1="214.00968867902418" x2="205.0" y1="182.43240605350147" y2="178.09356866232588"/><line stroke="black" stroke-width="1" x1="205.0" x2="195.99031132097582" y1="178.09356866232588" y2="182.43240605350147"/><line stroke="black" stroke-width="1" x1="195.99031132097582" x2="193.76510198141267" y1="182.43240605350147" y2="192.1816851753197"/><line stroke="black" stroke-width="1" x1="193.76510198141267" x2="200.0" y1="192.1816851753197" y2="200.0"/><line stroke="black" stroke-width="1" x1="210.0" x2="216.23489801858733" y1="200.0" y2="207.8183148246803"/><line stroke="black" stroke-width="1" x1="216.23489801858733" x2="226.23489801858733" y1="207.8183148246803" y2="207.8183148246803"/><line stroke="black" stroke-width="1" x1="226.23489801858733" x2="232.46979603717466" y1="207.8183148246803" y2="200.0"/><line stroke="black" stroke-width="1" x1="232.46979603717466" x2="230.2445866976115" y1="200.0" y2="190.25072087818177"/><line stroke="black" stroke-width="1" x1="230.2445866976115" x2="221.23489801858733" y1="190.25072087818177" y2="185.91188348700618"/><line stroke="black" stroke-width="1" x1="221.23489801858733" x2="212.22520933956315" y1="185.91188348700618" y2="190.25072087818177"/><line stroke="black" stroke-width="1" x1="212.22520933956315" x2="210.0" y1="190.25072087818177" y2="200.0"/><line stroke="black" stroke-width="1" x1="216.23489801858733" x2="214.00968867902418" y1="207.8183148246803" y2="217.56759394649853"/><line stroke="black" stroke-width="1" x1="214.00968867902418" x2="220.2445866976115" y1="217.56759394649853" y2="225.38590877117883"/><line stroke="black" stroke-width="1" x1="220.2445866976115" x2="230.2445866976115" y1="225.38590877117883" y2="225.38590877117883"/><line stroke="black" stroke-width="1" x1="230.2445866976115" x2="236.47948471619884" y1="225.38590877117883" y2="217.56759394649853"/><line stroke="black" stroke-width="1" x1="236.47948471619884" x2="234.2542753766357" y1="217.56759394649853" y2="207.8183148246803"/><line stroke="black" stroke-width="1" x1="234.2542753766357" x2="225.2445866976115" y1="207.8183148246803" y2="203.4794774335047"/><line stroke="black" stroke-width="1" x1="225.2445866976115" x2="216.23489801858733" y1="203.4794774335047" y2="207.8183148246803"/><line stroke="black" stroke-width="1" x1="214.00968867902418" x2="205.0" y1="217.56759394649853" y2="221.90643133767412"/><line stroke="black" stroke-width="1" x1="205.0" x2="202.77479066043685" y1="221.90643133767412" y2="231.65571045949235"/><line stroke="black" stroke-width="1" x1="202.77479066043685" x2="209.00968867902418" y1="231.65571045949235" y2="239.47402528417265"/><line stroke="black" stroke-width="1" x1="209.00968867902418" x2="219.00968867902418" y1="239.47402528417265" y2="239.47402528417265"/><line stroke="black" stroke-width="1" x1="219.00968867902418" x2="225.2445866976115" y1="239.47402528417265" y2="231.65571045949235"/><line stroke="black" stroke-width="1" x1="225.2445866976115" x2="223.01937735804836" y1="231.65571045949235" y2="221.90643133767412"/><line stroke="black" stroke-width="1" x1="223.01937735804836" x2="214.00968867902418" y1="221.90643133767412" y2="217.56759394649853"/><line stroke="black" stroke-width="1" x1="205.0" x2="195.99031132097582" y1="221.90643133767412" y2="217.56759394649853"/><line stroke="black" stroke-width="1" x1="195.99031132097582" x2="186.98062264195164" y1="217.56759394649853" y2="221.90643133767412"/><line stroke="black" stroke-width="1" x1="186.98062264195164" x2="184.7554133023885" y1="221.90643133767412" y2="231.65571045949235"/><line stroke="black" stroke-width="1" x1="184.7554133023885" x2="190.99031132097582" y1="231.65571045949235" y2="239.47402528417265"/><line stroke="black" stroke-width="1" x1="190.99031132097582" x2="200.99031132097582" y1="239.47402528417265" y2="239.47402528417265"/><line stroke="black" stroke-width="1" x1="200.99031132097582" x2="207.22520933956315" y1="239.47402528417265" y2="231.65571045949235"/><line stroke="black" stroke-width="1" x1="207.22520933956315" x2="205.00000000000003" y1="231.65571045949235" y2="221.90643133767412"/><line stroke="black" stroke-width="1" x1="195.99031132097585" x2="193.76510198141273" y1="217.56759394649853" y2="207.8183148246803"/><line stroke="black" stroke-width="1" x1="193.76510198141273" x2="184.75541330238855" y1="207.8183148246803" y2="203.4794774335047"/><line stroke="black" stroke-width="1" x1="184.75541330238855" x2="175.74572462336434" y1="203.4794774335047" y2="207.81831482468027"/><line stroke="black" stroke-width="1" x1="175.74572462336434" x2="173.5205152838012" y1="207.81831482468027" y2="217.5675939464985"/><line stroke="black" stroke-width="1" x1="173.5205152838012" x2="179.75541330238852" y1="217.5675939464985" y2="225.3859087711788"/><line stroke="black" stroke-width="1" x1="179.75541330238852" x2="189.75541330238852" y1="225.3859087711788" y2="225.3859087711788"/><line stroke="black" stroke-width="1" x1="189.75541330238852" x2="195.99031132097588" y1="225.3859087711788" y2="217.5675939464985"/><line stroke="black" stroke-width="1" x1="193.76510198141276" x2="200.0000000000001" y1="207.81831482468027" y2="199.99999999999997"/><line stroke="black" stroke-width="1" x1="200.0000000000001" x2="197.774790660437" y1="199.99999999999997" y2="190.25072087818174"/><line stroke="black" stroke-width="1" x1="197.774790660437" x2="188.7651019814128" y1="190.25072087818174" y2="185.91188348700615"/><line stroke="black" stroke-width="1" x1="188.7651019814128" x2="179.7554133023886" y1="185.91188348700615" y2="190.2507208781817"/><line stroke="black" stroke-width="1" x1="179.7554133023886" x2="177.53020396282545" y1="190.2507208781817" y2="199.99999999999994"/><line stroke="black" stroke-width="1" x1="177.53020396282545" x2="183.76510198141278" y1="199.99999999999994" y2="207.81831482468024"/><line stroke="black" stroke-width="1" x1="183.76510198141278" x2="193.76510198141278" y1="207.81831482468024" y2="207.81831482468027"/><line stroke="black" stroke-width="1" x1="210.00000000000014" x2="216.23489801858747" y1="200.0" y2="207.8183148246803"/><line stroke="black" stroke-width="1" x1="216.23489801858747" x2="226.23489801858747" y1="207.8183148246803" y2="207.81831482468033"/><line stroke="black" stroke-width="1" x1="226.23489801858747" x2="232.46979603717483" y1="207.81831482468033" y2="200.00000000000003"/><line stroke="black" stroke-width="1" x1="232.46979603717483" x2="230.2445866976117" y1="200.00000000000003" y2="190.2507208781818"/><line stroke="black" stroke-width="1" x1="230.2445866976117" x2="221.23489801858753" y1="190.2507208781818" y2="185.9118834870062"/><line stroke="black" stroke-width="1" x1="221.23489801858753" x2="212.22520933956332" y1="185.9118834870062" y2="190.25072087818177"/><line stroke="black" stroke-width="1" x1="212.22520933956332" x2="210.00000000000017" y1="190.25072087818177" y2="200.0"/><line stroke="black" stroke-width="1" x1="216.2348980185875" x2="214.00968867902435" y1="207.8183148246803" y2="217.56759394649853"/><line stroke="black" stroke-width="1" x1="214.00968867902435" x2="220.24458669761168" y1="217.56759394649853" y2="225.38590877117883"/><line stroke="black" stroke-width="1" x1="220.24458669761168" x2="230.24458669761168" y1="225.38590877117883" y2="225.38590877117886"/><line stroke="black" stroke-width="1" x1="230.24458669761168" x2="236.47948471619904" y1="225.38590877117886" y2="217.56759394649856"/><line stroke="black" stroke-width="1" x1="236.47948471619904" x2="234.25427537663592" y1="217.56759394649856" y2="207.81831482468033"/><line stroke="black" stroke-width="1" x1="234.25427537663592" x2="225.24458669761174" y1="207.81831482468033" y2="203.47947743350474"/><line stroke="black" stroke-width="1" x1="225.24458669761174" x2="216.23489801858753" y1="203.47947743350474" y2="207.8183148246803"/><line stroke="black" stroke-width="1" x1="214.00968867902438" x2="205.00000000000017" y1="217.56759394649853" y2="221.9064313376741"/><line stroke="black" stroke-width="1" x1="205.00000000000017" x2="202.77479066043702" y1="221.9064313376741" y2="231.65571045949233"/><line stroke="black" stroke-width="1" x1="202.77479066043702" x2="209.00968867902435" y1="231.65571045949233" y2="239.47402528417263"/><line stroke="black" stroke-width="1" x1="209.00968867902435" x2="219.00968867902435" y1="239.47402528417263" y2="239.47402528417265"/><line stroke="black" stroke-width="1" x1="219.00968867902435" x2="225.2445866976117" y1="239.47402528417265" y2="231.65571045949235"/><line stroke="black" stroke-width="1" x1="225.2445866976117" x2="223.0193773580486" y1="231.65571045949235" y2="221.90643133767412"/><line stroke="black" stroke-width="1" x1="223.0193773580486" x2="214.0096886790244" y1="221.90643133767412" y2="217.56759394649853"/><line stroke="black" stroke-width="1" x1="205.0000000000002" x2="195.99031132097602" y1="221.9064313376741" y2="217.5675939464985"/><line stroke="black" stroke-width="1" x1="195.99031132097602" x2="186.9806226419518" y1="217.5675939464985" y2="221.90643133767406"/><line stroke="black" stroke-width="1" x1="186.9806226419518" x2="184.75541330238866" y1="221.90643133767406" y2="231.6557104594923"/><line stroke="black" stroke-width="1" x1="184.75541330238866" x2="190.990311320976" y1="231.6557104594923" y2="239.4740252841726"/><line stroke="black" stroke-width="1" x1="190.990311320976" x2="200.990311320976" y1="239.4740252841726" y2="239.47402528417263"/><line stroke="black" stroke-width="1" x1="200.990311320976" x2="207.22520933956335" y1="239.47402528417263" y2="231.65571045949235"/><line stroke="black" stroke-width="1" x1="207.22520933956335" x2="205.00000000000023" y1="231.65571045949235" y2="221.90643133767412"/><line stroke="black" stroke-width="1" x1="195.99031132097605" x2="193.76510198141293" y1="217.5675939464985" y2="207.81831482468027"/><line stroke="black" stroke-width="1" x1="193.76510198141293" x2="184.75541330238875" y1="207.81831482468027" y2="203.47947743350466"/><line stroke="black" stroke-width="1" x1="184.75541330238875" x2="175.74572462336454" y1="203.47947743350466" y2="207.81831482468021"/><line stroke="black" stroke-width="1" x1="175.74572462336454" x2="173.52051528380136" y1="207.81831482468021" y2="217.56759394649845"/><line stroke="black" stroke-width="1" x1="173.52051528380136" x2="179.75541330238866" y1="217.56759394649845" y2="225.38590877117875"/><line stroke="black" stroke-width="1" x1="179.75541330238866" x2="189.75541330238866" y1="225.38590877117875" y2="225.38590877117878"/><line stroke="black" stroke-width="1" x1="189.75541330238866" x2="195.99031132097602" y1="225.38590877117878" y2="217.5675939464985"/><line stroke="black" stroke-width="1" x1="193.7651019814129" x2="200.00000000000026" y1="207.81831482468027" y2="200.0"/><line stroke="black" stroke-width="1" x1="200.00000000000026" x2="197.77479066043713" y1="200.0" y2="190.25072087818177"/><line stroke="black" stroke-width="1" x1="197.77479066043713" x2="188.76510198141298" y1="190.25072087818177" y2="185.9118834870061"/><line stroke="black" stroke-width="1" x1="188.76510198141298" x2="179.75541330238872" y1="185.9118834870061" y2="190.2507208781815"/><line stroke="black" stroke-width="1" x1="179.75541330238872" x2="177.53020396282534" y1="190.2507208781815" y2="199.9999999999997"/><line stroke="black" stroke-width="1" x1="177.53020396282534" x2="183.76510198141244" y1="199.9999999999997" y2="207.8183148246802"/><line stroke="black" stroke-width="1" x1="183.76510198141244" x2="193.76510198141244" y1="207.8183148246802" y2="207.81831482468056"/><line stroke="black" stroke-width="1" x1="200.00000000000014" x2="210.00000000000014" y1="200.00000000000054" y2="200.0000000000009"/><line stroke="black" stroke-width="1" x1="210.00000000000014" x2="216.23489801858784" y1="200.0000000000009" y2="192.1816851753209"/><line stroke="black" stroke-width="1" x1="216.23489801858784" x2="214.0096886790252" y1="192.1816851753209" y2="182.43240605350255"/><line stroke="black" stroke-width="1" x1="214.0096886790252" x2="205.00000000000128" y1="182.43240605350255" y2="178.09356866232642"/><line stroke="black" stroke-width="1" x1="205.00000000000128" x2="195.9903113209768" y1="178.09356866232642" y2="182.4324060535014"/><line stroke="black" stroke-width="1" x1="195.9903113209768" x2="193.76510198141293" y1="182.4324060535014" y2="192.18168517531947"/><line stroke="black" stroke-width="1" x1="193.76510198141293" x2="199.99999999999963" y1="192.18168517531947" y2="200.00000000000028"/><line stroke="black" stroke-width="1" x1="216.23489801858634" x2="214.00968867902247" y1="207.81831482468198" y2="217.56759394650004"/><line stroke="black" stroke-width="1" x1="214.00968867902247" x2="220.24458669760918" y1="217.56759394650004" y2="225.38590877118085"/><line stroke="black" stroke-width="1" x1="220.24458669760918" x2="230.24458669760918" y1="225.38590877118085" y2="225.38590877118173"/><line stroke="black" stroke-width="1" x1="230.24458669760918" x2="236.47948471619725" y1="225.38590877118173" y2="217.56759394650203"/><line stroke="black" stroke-width="1" x1="236.47948471619725" x2="234.2542753766351" y1="217.56759394650203" y2="207.81831482468357"/><line stroke="black" stroke-width="1" x1="234.2542753766351" x2="225.24458669761137" y1="207.81831482468357" y2="203.479477433507"/><line stroke="black" stroke-width="1" x1="225.24458669761137" x2="216.23489801858668" y1="203.479477433507" y2="207.81831482468152"/><line stroke="black" stroke-width="1" x1="214.00968867902233" x2="204.99999999999764" y1="217.56759394649947" y2="221.906431337674"/><line stroke="black" stroke-width="1" x1="204.99999999999764" x2="202.7747906604333" y1="221.906431337674" y2="231.65571045949196"/><line stroke="black" stroke-width="1" x1="202.7747906604333" x2="209.0096886790196" y1="231.65571045949196" y2="239.47402528417308"/><line stroke="black" stroke-width="1" x1="209.0096886790196" x2="219.0096886790196" y1="239.47402528417308" y2="239.47402528417447"/><line stroke="black" stroke-width="1" x1="219.0096886790196" x2="225.24458669760807" y1="239.47402528417447" y2="231.65571045949508"/><line stroke="black" stroke-width="1" x1="225.24458669760807" x2="223.01937735804643" y1="231.65571045949508" y2="221.9064313376765"/><line stroke="black" stroke-width="1" x1="223.01937735804643" x2="214.00968867902293" y1="221.9064313376765" y2="217.5675939464995"/><line stroke="black" stroke-width="1" x1="204.999999999998" x2="195.9903113209745" y1="221.90643133767358" y2="217.56759394649657"/><line stroke="black" stroke-width="1" x1="195.9903113209745" x2="186.9806226419496" y1="217.56759394649657" y2="221.90643133767065"/><line stroke="black" stroke-width="1" x1="186.9806226419496" x2="184.75541330238477" y1="221.90643133767065" y2="231.6557104594885"/><line stroke="black" stroke-width="1" x1="184.75541330238477" x2="190.99031132097068" y1="231.6557104594885" y2="239.47402528416993"/><line stroke="black" stroke-width="1" x1="190.99031132097068" x2="200.99031132097068" y1="239.47402528416993" y2="239.4740252841718"/><line stroke="black" stroke-width="1" x1="200.99031132097068" x2="207.22520933955954" y1="239.4740252841718" y2="231.65571045949272"/><line stroke="black" stroke-width="1" x1="207.22520933955954" x2="204.99999999999838" y1="231.65571045949272" y2="221.90643133767404"/><line stroke="black" stroke-width="1" x1="195.9903113209751" x2="193.76510198141395" y1="217.56759394649657" y2="207.81831482467788"/><line stroke="black" stroke-width="1" x1="193.76510198141395" x2="184.75541330239068" y1="207.81831482467788" y2="203.47947743350042"/><line stroke="black" stroke-width="1" x1="184.75541330239068" x2="175.74572462336556" y1="203.47947743350042" y2="207.81831482467405"/><line stroke="black" stroke-width="1" x1="175.74572462336556" x2="173.52051528380022" y1="207.81831482467405" y2="217.5675939464918"/><line stroke="black" stroke-width="1" x1="173.52051528380022" x2="179.75541330238576" y1="217.5675939464918" y2="225.38590877117355"/><line stroke="black" stroke-width="1" x1="179.75541330238576" x2="189.75541330238576" y1="225.38590877117355" y2="225.38590877117593"/><line stroke="black" stroke-width="1" x1="189.75541330238576" x2="195.99031132097502" y1="225.38590877117593" y2="217.56759394649717"/><line stroke="black" stroke-width="1" x1="193.76510198141435" x2="200.0000000000036" y1="207.81831482467837" y2="199.9999999999996"/><line stroke="black" stroke-width="1" x1="200.0000000000036" x2="197.77479066044293" y1="199.9999999999996" y2="190.2507208781808"/><line stroke="black" stroke-width="1" x1="197.77479066044293" x2="188.76510198141986" y1="190.2507208781808" y2="185.91188348700288"/><line stroke="black" stroke-width="1" x1="188.76510198141986" x2="179.75541330239452" y1="185.91188348700288" y2="190.25072087817605"/><line stroke="black" stroke-width="1" x1="179.75541330239452" x2="177.5302039628287" y1="190.25072087817605" y2="199.9999999999937"/><line stroke="black" stroke-width="1" x1="177.5302039628287" x2="183.76510198141384" y1="199.9999999999937" y2="207.81831482467575"/><line stroke="black" stroke-width="1" x1="183.76510198141384" x2="193.76510198141384" y1="207.81831482467575" y2="207.81831482467862"/><line stroke="black" stroke-width="1" x1="200.00000000000347" x2="210.00000000000347" y1="200.00000000000017" y2="200.00000000000304"/><line stroke="black" stroke-width="1" x1="210.00000000000347" x2="216.2348980185931" y1="200.00000000000304" y2="192.1816851753246"/><line stroke="black" stroke-width="1" x1="216.2348980185931" x2="214.0096886790329" y1="192.1816851753246" y2="182.43240605350567"/><line stroke="black" stroke-width="1" x1="214.0096886790329" x2="205.00000000001006" y1="182.43240605350567" y2="178.0935686623273"/><line stroke="black" stroke-width="1" x1="205.00000000001006" x2="195.9903113209845" y1="178.0935686623273" y2="182.43240605350002"/><line stroke="black" stroke-width="1" x1="195.9903113209845" x2="193.76510198141818" y1="182.43240605350002" y2="192.18168517531754"/><line stroke="black" stroke-width="1" x1="193.76510198141818" x2="200.00000000000293" y1="192.18168517531754" y2="199.99999999999991"/><line stroke="black" stroke-width="1" x1="210.00000000000293" x2="216.23489801858767" y1="200.0000000000033" y2="207.81831482468567"/><line stroke="black" stroke-width="1" x1="216.23489801858767" x2="226.23489801858767" y1="207.81831482468567" y2="207.81831482468905"/><line stroke="black" stroke-width="1" x1="226.23489801858767" x2="232.4697960371777" y1="207.81831482468905" y2="200.0000000000109"/><line stroke="black" stroke-width="1" x1="232.4697960371777" x2="230.244586697618" y1="200.0000000000109" y2="190.25072087819188"/><line stroke="black" stroke-width="1" x1="230.244586697618" x2="221.23489801859535" y1="190.25072087819188" y2="185.91188348701306"/><line stroke="black" stroke-width="1" x1="221.23489801859535" x2="212.22520933956957" y1="185.91188348701306" y2="190.25072087818535"/><line stroke="black" stroke-width="1" x1="212.22520933956957" x2="210.00000000000279" y1="190.25072087818535" y2="200.00000000000276"/><line stroke="black" stroke-width="1" x1="214.00968867902034" x2="204.99999999999457" y1="217.56759394650285" y2="221.90643133767514"/><line stroke="black" stroke-width="1" x1="204.99999999999457" x2="202.77479066042778" y1="221.90643133767514" y2="231.65571045949255"/><line stroke="black" stroke-width="1" x1="202.77479066042778" x2="209.00968867901213" y1="231.65571045949255" y2="239.47402528417524"/><line stroke="black" stroke-width="1" x1="209.00968867901213" x2="219.00968867901213" y1="239.47402528417524" y2="239.47402528417913"/><line stroke="black" stroke-width="1" x1="219.00968867901213" x2="225.24458669760256" y1="239.47402528417913" y2="231.6557104595013"/><line stroke="black" stroke-width="1" x1="225.24458669760256" x2="223.01937735804333" y1="231.6557104595013" y2="221.90643133768216"/><line stroke="black" stroke-width="1" x1="223.01937735804333" x2="214.0096886790209" y1="221.90643133768216" y2="217.56759394650288"/><line stroke="black" stroke-width="1" x1="204.9999999999949" x2="195.9903113209725" y1="221.90643133767472" y2="217.56759394649544"/><line stroke="black" stroke-width="1" x1="195.9903113209725" x2="186.9806226419465" y1="217.56759394649544" y2="221.90643133766727"/><line stroke="black" stroke-width="1" x1="186.9806226419465" x2="184.75541330237922" y1="221.90643133766727" y2="231.65571045948457"/><line stroke="black" stroke-width="1" x1="184.75541330237922" x2="190.9903113209632" y1="231.65571045948457" y2="239.47402528416754"/><line stroke="black" stroke-width="1" x1="190.9903113209632" x2="200.9903113209632" y1="239.47402528416754" y2="239.47402528417192"/><line stroke="black" stroke-width="1" x1="200.9903113209632" x2="207.22520933955403" y1="239.47402528417192" y2="231.6557104594944"/><line stroke="black" stroke-width="1" x1="207.22520933955403" x2="204.99999999999528" y1="231.6557104594944" y2="221.90643133767514"/><line stroke="black" stroke-width="1" x1="195.9903113209731" x2="193.76510198141435" y1="217.56759394649544" y2="207.81831482467618"/><line stroke="black" stroke-width="1" x1="193.76510198141435" x2="184.75541330239216" y1="207.81831482467618" y2="203.47947743349647"/><line stroke="black" stroke-width="1" x1="184.75541330239216" x2="175.74572462336593" y1="203.47947743349647" y2="207.81831482466785"/><line stroke="black" stroke-width="1" x1="175.74572462336593" x2="173.52051528379818" y1="207.81831482466785" y2="217.56759394648503"/><line stroke="black" stroke-width="1" x1="173.52051528379818" x2="179.75541330238175" y1="217.56759394648503" y2="225.38590877116832"/><line stroke="black" stroke-width="1" x1="179.75541330238175" x2="189.75541330238175" y1="225.38590877116832" y2="225.3859087711732"/><line stroke="black" stroke-width="1" x1="189.75541330238175" x2="195.99031132097295" y1="225.3859087711732" y2="217.567593946496"/><line stroke="black" stroke-width="1" x1="193.76510198141472" x2="200.0000000000059" y1="207.81831482467666" y2="199.99999999999946"/><line stroke="black" stroke-width="1" x1="200.0000000000059" x2="197.77479066044768" y1="199.99999999999946" y2="190.25072087818012"/><line stroke="black" stroke-width="1" x1="197.77479066044768" x2="188.7651019814257" y1="190.25072087818012" y2="185.91188348699995"/><line stroke="black" stroke-width="1" x1="188.7651019814257" x2="179.75541330239926" y1="185.91188348699995" y2="190.25072087817088"/><line stroke="black" stroke-width="1" x1="179.75541330239926" x2="177.53020396283102" y1="190.25072087817088" y2="199.99999999998795"/><line stroke="black" stroke-width="1" x1="177.53020396283102" x2="183.7651019814142" y1="199.99999999998795" y2="207.81831482467155"/><line stroke="black" stroke-width="1" x1="183.7651019814142" x2="193.7651019814142" y1="207.81831482467155" y2="207.81831482467692"/><line stroke="black" stroke-width="1" x1="200.0000000000058" x2="210.0000000000058" y1="200.00000000000003" y2="200.0000000000054"/><line stroke="black" stroke-width="1" x1="210.0000000000058" x2="216.2348980185974" y1="200.0000000000054" y2="192.1816851753285"/><line stroke="black" stroke-width="1" x1="216.2348980185974" x2="214.00968867903964" y1="192.1816851753285" y2="182.43240605350906"/><line stroke="black" stroke-width="1" x1="214.00968867903964" x2="205.00000000001788" y1="182.43240605350906" y2="178.09356866232844"/><line stroke="black" stroke-width="1" x1="205.00000000001788" x2="195.99031132099122" y1="178.09356866232844" y2="182.4324060534989"/><line stroke="black" stroke-width="1" x1="195.99031132099122" x2="193.76510198142248" y1="182.4324060534989" y2="192.18168517531586"/><line stroke="black" stroke-width="1" x1="193.76510198142248" x2="200.00000000000526" y1="192.18168517531586" y2="199.99999999999977"/><line stroke="black" stroke-width="1" x1="210.00000000000526" x2="216.23489801858804" y1="200.00000000000566" y2="207.81831482468957"/><line stroke="black" stroke-width="1" x1="216.23489801858804" x2="226.23489801858804" y1="207.81831482468957" y2="207.81831482469545"/><line stroke="black" stroke-width="1" x1="226.23489801858804" x2="232.46979603718003" y1="207.81831482469545" y2="200.00000000001887"/><line stroke="black" stroke-width="1" x1="232.46979603718003" x2="230.24458669762276" y1="200.00000000001887" y2="190.2507208781993"/><line stroke="black" stroke-width="1" x1="230.24458669762276" x2="221.23489801860123" y1="190.2507208781993" y2="185.91188348701823"/><line stroke="black" stroke-width="1" x1="221.23489801860123" x2="212.22520933957435" y1="185.91188348701823" y2="190.25072087818825"/><line stroke="black" stroke-width="1" x1="212.22520933957435" x2="210.00000000000512" y1="190.25072087818825" y2="200.0000000000051"/><line stroke="black" stroke-width="1" x1="216.23489801858753" x2="214.0096886790183" y1="207.8183148246893" y2="217.56759394650615"/><line stroke="black" stroke-width="1" x1="214.0096886790183" x2="220.2445866976007" y1="217.56759394650615" y2="225.38590877119037"/><line stroke="black" stroke-width="1" x1="220.2445866976007" x2="230.2445866976007" y1="225.38590877119037" y2="225.38590877119674"/><line stroke="black" stroke-width="1" x1="230.2445866976007" x2="236.4794847161931" y1="225.38590877119674" y2="217.56759394652047"/><line stroke="black" stroke-width="1" x1="236.4794847161931" x2="234.25427537663631" y1="217.56759394652047" y2="207.8183148247008"/><line stroke="black" stroke-width="1" x1="234.25427537663631" x2="225.24458669761498" y1="207.8183148247008" y2="203.47947743351926"/><line stroke="black" stroke-width="1" x1="225.24458669761498" x2="216.2348980185879" y1="203.47947743351926" y2="207.81831482468883"/><line stroke="black" stroke-width="1" x1="204.9999999999911" x2="195.99031132096977" y1="221.90643133767512" y2="217.5675939464936"/><line stroke="black" stroke-width="1" x1="195.99031132096977" x2="186.9806226419427" y1="217.5675939464936" y2="221.90643133766315"/><line stroke="black" stroke-width="1" x1="186.9806226419427" x2="184.75541330237297" y1="221.90643133766315" y2="231.65571045947988"/><line stroke="black" stroke-width="1" x1="184.75541330237297" x2="190.990311320955" y1="231.65571045947988" y2="239.4740252841644"/><line stroke="black" stroke-width="1" x1="190.990311320955" x2="200.990311320955" y1="239.4740252841644" y2="239.4740252841713"/><line stroke="black" stroke-width="1" x1="200.990311320955" x2="207.22520933954775" y1="239.4740252841713" y2="231.65571045949534"/><line stroke="black" stroke-width="1" x1="207.22520933954775" x2="204.99999999999145" y1="231.65571045949534" y2="221.90643133767554"/><line stroke="black" stroke-width="1" x1="195.99031132097033" x2="193.76510198141403" y1="217.56759394649356" y2="207.81831482467376"/><line stroke="black" stroke-width="1" x1="193.76510198141403" x2="184.75541330239292" y1="207.81831482467376" y2="203.47947743349178"/><line stroke="black" stroke-width="1" x1="184.75541330239292" x2="175.74572462336562" y1="203.47947743349178" y2="207.81831482466092"/><line stroke="black" stroke-width="1" x1="175.74572462336562" x2="173.52051528379542" y1="207.81831482466092" y2="217.56759394647753"/><line stroke="black" stroke-width="1" x1="173.52051528379542" x2="179.75541330237704" y1="217.56759394647753" y2="225.38590877116238"/><line stroke="black" stroke-width="1" x1="179.75541330237704" x2="189.75541330237704" y1="225.38590877116238" y2="225.38590877116977"/><line stroke="black" stroke-width="1" x1="189.75541330237704" x2="195.9903113209702" y1="225.38590877116977" y2="217.56759394649413"/><line stroke="black" stroke-width="1" x1="193.76510198141438" x2="200.00000000000753" y1="207.81831482467422" y2="199.99999999999858"/><line stroke="black" stroke-width="1" x1="200.00000000000753" x2="197.7747906604517" y1="199.99999999999858" y2="190.25072087817867"/><line stroke="black" stroke-width="1" x1="197.7747906604517" x2="188.7651019814308" y1="190.25072087817867" y2="185.91188348699626"/><line stroke="black" stroke-width="1" x1="188.7651019814308" x2="179.7554133024033" y1="185.91188348699626" y2="190.25072087816494"/><line stroke="black" stroke-width="1" x1="179.7554133024033" x2="177.53020396283262" y1="190.25072087816494" y2="199.99999999998147"/><line stroke="black" stroke-width="1" x1="177.53020396283262" x2="183.76510198141384" y1="199.99999999998147" y2="207.81831482466663"/><line stroke="black" stroke-width="1" x1="183.76510198141384" x2="193.76510198141384" y1="207.81831482466663" y2="207.8183148246745"/><line stroke="black" stroke-width="1" x1="200.0000000000074" x2="210.0000000000074" y1="199.99999999999915" y2="200.00000000000702"/><line stroke="black" stroke-width="1" x1="210.0000000000074" x2="216.23489801860094" y1="200.00000000000702" y2="192.18168517533167"/><line stroke="black" stroke-width="1" x1="216.23489801860094" x2="214.0096886790456" y1="192.18168517533167" y2="182.43240605351164"/><line stroke="black" stroke-width="1" x1="214.0096886790456" x2="205.00000000002493" y1="182.43240605351164" y2="178.09356866232878"/><line stroke="black" stroke-width="1" x1="205.00000000002493" x2="195.9903113209972" y1="178.09356866232878" y2="182.432406053497"/><line stroke="black" stroke-width="1" x1="195.9903113209972" x2="193.76510198142603" y1="182.432406053497" y2="192.18168517531342"/><line stroke="black" stroke-width="1" x1="193.76510198142603" x2="200.00000000000688" y1="192.18168517531342" y2="199.9999999999989"/><line stroke="black" stroke-width="1" x1="210.00000000000688" x2="216.23489801858773" y1="200.00000000000728" y2="207.81831482469275"/><line stroke="black" stroke-width="1" x1="216.23489801858773" x2="226.23489801858773" y1="207.81831482469275" y2="207.81831482470113"/><line stroke="black" stroke-width="1" x1="226.23489801858773" x2="232.46979603718168" y1="207.81831482470113" y2="200.0000000000261"/><line stroke="black" stroke-width="1" x1="232.46979603718168" x2="230.24458669762686" y1="200.0000000000261" y2="190.25072087820595"/><line stroke="black" stroke-width="1" x1="230.24458669762686" x2="221.2348980186064" y1="190.25072087820595" y2="185.91188348702264"/><line stroke="black" stroke-width="1" x1="221.2348980186064" x2="212.22520933957844" y1="185.91188348702264" y2="190.2507208781904"/><line stroke="black" stroke-width="1" x1="212.22520933957844" x2="210.0000000000068" y1="190.2507208781904" y2="200.0000000000067"/><line stroke="black" stroke-width="1" x1="216.23489801858724" x2="214.0096886790156" y1="207.8183148246925" y2="217.5675939465088"/><line stroke="black" stroke-width="1" x1="214.0096886790156" x2="220.24458669759605" y1="217.5675939465088" y2="225.38590877119458"/><line stroke="black" stroke-width="1" x1="220.24458669759605" x2="230.24458669759605" y1="225.38590877119458" y2="225.38590877120345"/><line stroke="black" stroke-width="1" x1="230.24458669759605" x2="236.47948471619037" y1="225.38590877120345" y2="217.56759394652872"/><line stroke="black" stroke-width="1" x1="236.47948471619037" x2="234.25427537663603" y1="217.56759394652872" y2="207.81831482470847"/><line stroke="black" stroke-width="1" x1="234.25427537663603" x2="225.24458669761577" y1="207.81831482470847" y2="203.4794774335247"/><line stroke="black" stroke-width="1" x1="225.24458669761577" x2="216.23489801858761" y1="203.4794774335247" y2="207.818314824692"/><line stroke="black" stroke-width="1" x1="214.00968867901545" x2="204.9999999999873" y1="217.5675939465082" y2="221.9064313376755"/><line stroke="black" stroke-width="1" x1="204.9999999999873" x2="202.77479066041514" y1="221.9064313376755" y2="231.6557104594917"/><line stroke="black" stroke-width="1" x1="202.77479066041514" x2="209.0096886789952" y1="231.6557104594917" y2="239.4740252841778"/><line stroke="black" stroke-width="1" x1="209.0096886789952" x2="219.0096886789952" y1="239.4740252841778" y2="239.47402528418718"/><line stroke="black" stroke-width="1" x1="219.0096886789952" x2="225.2445866975899" y1="239.47402528418718" y2="231.65571045951276"/><line stroke="black" stroke-width="1" x1="225.2445866975899" x2="223.01937735803605" y1="231.65571045951276" y2="221.9064313376924"/><line stroke="black" stroke-width="1" x1="223.01937735803605" x2="214.00968867901602" y1="221.9064313376924" y2="217.56759394650817"/><line stroke="black" stroke-width="1" x1="195.9903113209676" x2="193.76510198141375" y1="217.5675939464908" y2="207.81831482467044"/><line stroke="black" stroke-width="1" x1="193.76510198141375" x2="184.75541330239372" y1="207.81831482467044" y2="203.4794774334862"/><line stroke="black" stroke-width="1" x1="184.75541330239372" x2="175.74572462336533" y1="203.4794774334862" y2="207.81831482465307"/><line stroke="black" stroke-width="1" x1="175.74572462336533" x2="173.5205152837927" y1="207.81831482465307" y2="217.56759394646915"/><line stroke="black" stroke-width="1" x1="173.5205152837927" x2="179.75541330237235" y1="217.56759394646915" y2="225.38590877115556"/><line stroke="black" stroke-width="1" x1="179.75541330237235" x2="189.75541330237235" y1="225.38590877115556" y2="225.38590877116545"/><line stroke="black" stroke-width="1" x1="189.75541330237235" x2="195.99031132096746" y1="225.38590877116545" y2="217.56759394649134"/><line stroke="black" stroke-width="1" x1="193.7651019814141" x2="200.0000000000092" y1="207.81831482467086" y2="199.99999999999676"/><line stroke="black" stroke-width="1" x1="200.0000000000092" x2="197.77479066045584" y1="199.99999999999676" y2="190.25072087817628"/><line stroke="black" stroke-width="1" x1="197.77479066045584" x2="188.76510198143603" y1="190.25072087817628" y2="185.9118834869916"/><line stroke="black" stroke-width="1" x1="188.76510198143603" x2="179.75541330240742" y1="185.9118834869916" y2="190.25072087815803"/><line stroke="black" stroke-width="1" x1="179.75541330240742" x2="177.5302039628343" y1="190.25072087815803" y2="199.999999999974"/><line stroke="black" stroke-width="1" x1="177.5302039628343" x2="183.76510198141358" y1="199.999999999974" y2="207.81831482466072"/><line stroke="black" stroke-width="1" x1="183.76510198141358" x2="193.76510198141358" y1="207.81831482466072" y2="207.8183148246711"/><line stroke="black" stroke-width="1" x1="200.0000000000091" x2="210.0000000000091" y1="199.9999999999973" y2="200.00000000000767"/><line stroke="black" stroke-width="1" x1="210.0000000000091" x2="216.2348980186046" y1="200.00000000000767" y2="192.18168517533388"/><line stroke="black" stroke-width="1" x1="216.2348980186046" x2="214.00968867905172" y1="192.18168517533388" y2="182.43240605351332"/><line stroke="black" stroke-width="1" x1="214.00968867905172" x2="205.00000000003212" y1="182.43240605351332" y2="178.09356866232818"/><line stroke="black" stroke-width="1" x1="205.00000000003212" x2="195.9903113210033" y1="178.09356866232818" y2="182.43240605349416"/><line stroke="black" stroke-width="1" x1="195.9903113210033" x2="193.7651019814297" y1="182.43240605349416" y2="192.18168517531"/><line stroke="black" stroke-width="1" x1="193.7651019814297" x2="200.00000000000858" y1="192.18168517531" y2="199.99999999999704"/><line stroke="black" stroke-width="1" x1="210.00000000000858" x2="216.23489801858747" y1="200.00000000000793" y2="207.81831482469497"/><line stroke="black" stroke-width="1" x1="216.23489801858747" x2="226.23489801858747" y1="207.81831482469497" y2="207.81831482470585"/><line stroke="black" stroke-width="1" x1="226.23489801858747" x2="232.46979603718336" y1="207.81831482470585" y2="200.00000000003237"/><line stroke="black" stroke-width="1" x1="232.46979603718336" x2="230.24458669763095" y1="200.00000000003237" y2="190.2507208782117"/><line stroke="black" stroke-width="1" x1="230.24458669763095" x2="221.23489801861157" y1="190.2507208782117" y2="185.91188348702613"/><line stroke="black" stroke-width="1" x1="221.23489801861157" x2="212.22520933958253" y1="185.91188348702613" y2="190.25072087819166"/><line stroke="black" stroke-width="1" x1="212.22520933958253" x2="210.00000000000844" y1="190.25072087819166" y2="200.0000000000074"/><line stroke="black" stroke-width="1" x1="216.23489801858693" x2="214.00968867901284" y1="207.81831482469474" y2="217.56759394651047"/><line stroke="black" stroke-width="1" x1="214.00968867901284" x2="220.24458669759133" y1="217.56759394651047" y2="225.38590877119782"/><line stroke="black" stroke-width="1" x1="220.24458669759133" x2="230.24458669759133" y1="225.38590877119782" y2="225.3859087712092"/><line stroke="black" stroke-width="1" x1="230.24458669759133" x2="236.4794847161876" y1="225.3859087712092" y2="217.56759394653602"/><line stroke="black" stroke-width="1" x1="236.4794847161876" x2="234.2542753766357" y1="217.56759394653602" y2="207.81831482471523"/><line stroke="black" stroke-width="1" x1="234.2542753766357" x2="225.24458669761654" y1="207.81831482471523" y2="203.4794774335292"/><line stroke="black" stroke-width="1" x1="225.24458669761654" x2="216.2348980185873" y1="203.4794774335292" y2="207.81831482469428"/><line stroke="black" stroke-width="1" x1="214.00968867901273" x2="204.9999999999835" y1="217.5675939465099" y2="221.90643133767497"/><line stroke="black" stroke-width="1" x1="204.9999999999835" x2="202.7747906604089" y1="221.90643133767497" y2="231.6557104594906"/><line stroke="black" stroke-width="1" x1="202.7747906604089" x2="209.009688678987" y1="231.6557104594906" y2="239.47402528417825"/><line stroke="black" stroke-width="1" x1="209.009688678987" x2="219.009688678987" y1="239.47402528417825" y2="239.47402528419013"/><line stroke="black" stroke-width="1" x1="219.009688678987" x2="225.24458669758369" y1="239.47402528419013" y2="231.65571045951728"/><line stroke="black" stroke-width="1" x1="225.24458669758369" x2="223.01937735803227" y1="231.65571045951728" y2="221.90643133769638"/><line stroke="black" stroke-width="1" x1="223.01937735803227" x2="214.00968867901332" y1="221.90643133769638" y2="217.5675939465099"/><line stroke="black" stroke-width="1" x1="204.99999999998386" x2="195.9903113209649" y1="221.90643133767452" y2="217.56759394648805"/><line stroke="black" stroke-width="1" x1="195.9903113209649" x2="186.98062264193544" y1="217.56759394648805" y2="221.90643133765266"/><line stroke="black" stroke-width="1" x1="186.98062264193544" x2="184.75541330236038" y1="221.90643133765266" y2="231.65571045946817"/><line stroke="black" stroke-width="1" x1="184.75541330236038" x2="190.9903113209381" y1="231.65571045946817" y2="239.47402528415614"/><line stroke="black" stroke-width="1" x1="190.9903113209381" x2="200.9903113209381" y1="239.47402528415614" y2="239.47402528416853"/><line stroke="black" stroke-width="1" x1="200.9903113209381" x2="207.22520933953518" y1="239.47402528416853" y2="231.655710459496"/><line stroke="black" stroke-width="1" x1="207.22520933953518" x2="204.99999999998425" y1="231.655710459496" y2="221.90643133767497"/><line stroke="black" stroke-width="1" x1="193.7651019814146" x2="200.00000000001168" y1="207.81831482466703" y2="199.9999999999945"/><line stroke="black" stroke-width="1" x1="200.00000000001168" x2="197.77479066046075" y1="199.9999999999945" y2="190.25072087817347"/><line stroke="black" stroke-width="1" x1="197.77479066046075" x2="188.76510198144203" y1="190.25072087817347" y2="185.91188348698654"/><line stroke="black" stroke-width="1" x1="188.76510198144203" x2="179.75541330241234" y1="185.91188348698654" y2="190.2507208781507"/><line stroke="black" stroke-width="1" x1="179.75541330241234" x2="177.53020396283677" y1="190.2507208781507" y2="199.9999999999661"/><line stroke="black" stroke-width="1" x1="177.53020396283677" x2="183.7651019814141" y1="199.9999999999661" y2="207.81831482465438"/><line stroke="black" stroke-width="1" x1="183.7651019814141" x2="193.7651019814141" y1="207.81831482465438" y2="207.81831482466725"/><line stroke="black" stroke-width="1" x1="200.00000000001154" x2="210.00000000001154" y1="199.99999999999503" y2="200.0000000000079"/><line stroke="black" stroke-width="1" x1="210.00000000001154" x2="216.234898018609" y1="200.0000000000079" y2="192.18168517533567"/><line stroke="black" stroke-width="1" x1="216.234898018609" x2="214.00968867905854" y1="192.18168517533567" y2="182.43240605351454"/><line stroke="black" stroke-width="1" x1="214.00968867905854" x2="205.00000000004002" y1="182.43240605351454" y2="178.09356866232716"/><line stroke="black" stroke-width="1" x1="205.00000000004002" x2="195.99031132101013" y1="178.09356866232716" y2="182.43240605349087"/><line stroke="black" stroke-width="1" x1="195.99031132101013" x2="193.76510198143407" y1="182.43240605349087" y2="192.18168517530614"/><line stroke="black" stroke-width="1" x1="193.76510198143407" x2="200.000000000011" y1="192.18168517530614" y2="199.99999999999474"/><line stroke="black" stroke-width="1" x1="210.000000000011" x2="216.23489801858793" y1="200.00000000000813" y2="207.81831482469673"/><line stroke="black" stroke-width="1" x1="216.23489801858793" x2="226.23489801858793" y1="207.81831482469673" y2="207.81831482471011"/><line stroke="black" stroke-width="1" x1="226.23489801858793" x2="232.46979603718577" y1="207.81831482471011" y2="200.0000000000382"/><line stroke="black" stroke-width="1" x1="232.46979603718577" x2="230.2445866976358" y1="200.0000000000382" y2="190.25072087821695"/><line stroke="black" stroke-width="1" x1="230.2445866976358" x2="221.2348980186175" y1="190.25072087821695" y2="185.91188348702912"/><line stroke="black" stroke-width="1" x1="221.2348980186175" x2="212.2252093395874" y1="185.91188348702912" y2="190.2507208781924"/><line stroke="black" stroke-width="1" x1="212.2252093395874" x2="210.00000000001086" y1="190.2507208781924" y2="200.0000000000076"/><line stroke="black" stroke-width="1" x1="216.2348980185874" x2="214.00968867901085" y1="207.8183148246965" y2="217.5675939465117"/><line stroke="black" stroke-width="1" x1="214.00968867901085" x2="220.24458669758738" y1="217.5675939465117" y2="225.3859087712006"/><line stroke="black" stroke-width="1" x1="220.24458669758738" x2="230.24458669758738" y1="225.3859087712006" y2="225.38590877121447"/><line stroke="black" stroke-width="1" x1="230.24458669758738" x2="236.47948471618562" y1="225.38590877121447" y2="217.56759394654287"/><line stroke="black" stroke-width="1" x1="236.47948471618562" x2="234.25427537663614" y1="217.56759394654287" y2="207.8183148247215"/><line stroke="black" stroke-width="1" x1="234.25427537663614" x2="225.24458669761808" y1="207.8183148247215" y2="203.47947743353325"/><line stroke="black" stroke-width="1" x1="225.24458669761808" x2="216.23489801858773" y1="203.47947743353325" y2="207.81831482469607"/><line stroke="black" stroke-width="1" x1="214.0096886790107" x2="204.99999999998036" y1="217.56759394651115" y2="221.90643133767398"/><line stroke="black" stroke-width="1" x1="204.99999999998036" x2="202.77479066040334" y1="221.90643133767398" y2="231.65571045948906"/><line stroke="black" stroke-width="1" x1="202.77479066040334" x2="209.0096886789795" y1="231.65571045948906" y2="239.47402528417828"/><line stroke="black" stroke-width="1" x1="209.0096886789795" x2="219.0096886789795" y1="239.47402528417828" y2="239.47402528419266"/><line stroke="black" stroke-width="1" x1="219.0096886789795" x2="225.24458669757814" y1="239.47402528419266" y2="231.65571045952137"/><line stroke="black" stroke-width="1" x1="225.24458669757814" x2="223.01937735802915" y1="231.65571045952137" y2="221.9064313376999"/><line stroke="black" stroke-width="1" x1="223.01937735802915" x2="214.00968867901128" y1="221.9064313376999" y2="217.56759394651118"/><line stroke="black" stroke-width="1" x1="204.99999999998073" x2="195.99031132096286" y1="221.90643133767355" y2="217.56759394648483"/><line stroke="black" stroke-width="1" x1="195.99031132096286" x2="186.9806226419323" y1="217.56759394648483" y2="221.9064313376472"/><line stroke="black" stroke-width="1" x1="186.9806226419323" x2="184.7554133023548" y1="221.9064313376472" y2="231.65571045946217"/><line stroke="black" stroke-width="1" x1="184.7554133023548" x2="190.99031132093057" y1="231.65571045946217" y2="239.4740252841517"/><line stroke="black" stroke-width="1" x1="190.99031132093057" x2="200.99031132093057" y1="239.4740252841517" y2="239.47402528416657"/><line stroke="black" stroke-width="1" x1="200.99031132093057" x2="207.22520933952958" y1="239.47402528416657" y2="231.6557104594956"/><line stroke="black" stroke-width="1" x1="207.22520933952958" x2="204.99999999998107" y1="231.6557104594956" y2="221.906431337674"/><line stroke="black" stroke-width="1" x1="195.99031132096343" x2="193.76510198141492" y1="217.56759394648483" y2="207.81831482466325"/><line stroke="black" stroke-width="1" x1="193.76510198141492" x2="184.75541330239727" y1="207.81831482466325" y2="203.47947743347407"/><line stroke="black" stroke-width="1" x1="184.75541330239727" x2="175.7457246233665" y1="203.47947743347407" y2="207.818314824636"/><line stroke="black" stroke-width="1" x1="175.7457246233665" x2="173.5205152837885" y1="207.818314824636" y2="217.56759394645084"/><line stroke="black" stroke-width="1" x1="173.5205152837885" x2="179.75541330236388" y1="217.56759394645084" y2="225.3859087711407"/><line stroke="black" stroke-width="1" x1="179.75541330236388" x2="189.75541330236388" y1="225.3859087711407" y2="225.38590877115578"/><line stroke="black" stroke-width="1" x1="189.75541330236388" x2="195.99031132096286" y1="225.38590877115578" y2="217.56759394648475"/></svg>